HIERARCHY
ROOT Hips
{
	OFFSET 0.00000 0.00000 0.00000
	CHANNELS 6 Xposition Yposition Zposition Zrotation Yrotation Xrotation 
	JOINT LHipJoint
	{
		OFFSET 0 0 0
		CHANNELS 3 Zrotation Yrotation Xrotation
		JOINT LeftUpLeg
		{
			OFFSET 1.37590 -1.78394 0.89329
			CHANNELS 3 Zrotation Yrotation Xrotation
			JOINT LeftLeg
			{
				OFFSET 2.47928 -6.81178 0.00000
				CHANNELS 3 Zrotation Yrotation Xrotation
				JOINT LeftFoot
				{
					OFFSET 2.63345 -7.23535 0.00000
					CHANNELS 3 Zrotation Yrotation Xrotation
					JOINT LeftToeBase
					{
						OFFSET 0.23938 -0.65768 2.27012
						CHANNELS 3 Zrotation Yrotation Xrotation
						End Site
						{
							OFFSET 0.00000 -0.00000 1.18363
						}
					}
				}
			}
		}
	}
	JOINT RHipJoint
	{
		OFFSET 0 0 0
		CHANNELS 3 Zrotation Yrotation Xrotation
		JOINT RightUpLeg
		{
			OFFSET -1.33617 -1.78394 0.89329
			CHANNELS 3 Zrotation Yrotation Xrotation
			JOINT RightLeg
			{
				OFFSET -2.56922 -7.05888 0.00000
				CHANNELS 3 Zrotation Yrotation Xrotation
				JOINT RightFoot
				{
					OFFSET -2.56568 -7.04915 0.00000
					CHANNELS 3 Zrotation Yrotation Xrotation
					JOINT RightToeBase
					{
						OFFSET -0.27533 -0.75646 2.18105
						CHANNELS 3 Zrotation Yrotation Xrotation
						End Site
						{
							OFFSET -0.00000 -0.00000 1.15233
						}
					}
				}
			}
		}
	}
	JOINT LowerBack
	{
		OFFSET 0 0 0
		CHANNELS 3 Zrotation Yrotation Xrotation
		JOINT Spine
		{
			OFFSET 0.06190 2.15152 -0.00935
			CHANNELS 3 Zrotation Yrotation Xrotation
			JOINT Spine1
			{
				OFFSET 0.06334 2.15332 0.00872
				CHANNELS 3 Zrotation Yrotation Xrotation
				JOINT Neck
				{
					OFFSET 0 0 0
					CHANNELS 3 Zrotation Yrotation Xrotation
					JOINT Neck1
					{
						OFFSET -0.04202 1.66908 0.23524
						CHANNELS 3 Zrotation Yrotation Xrotation
						JOINT Head
						{
							OFFSET 0.07510 1.69357 -0.24440
							CHANNELS 3 Zrotation Yrotation Xrotation
							End Site
							{
								OFFSET 0.02556 1.71719 -0.11000
							}
						}
					}
				}
				JOINT LeftShoulder
				{
					OFFSET 0 0 0
					CHANNELS 3 Zrotation Yrotation Xrotation
					JOINT LeftArm
					{
						OFFSET 3.67168 1.26306 -0.41342
						CHANNELS 3 Zrotation Yrotation Xrotation
						JOINT LeftForeArm
						{
							OFFSET 4.68510 -0.00000 -0.00000
							CHANNELS 3 Zrotation Yrotation Xrotation
							JOINT LeftHand
							{
								OFFSET 3.39626 -0.00000 -0.00000
								CHANNELS 3 Zrotation Yrotation Xrotation
								JOINT LeftFingerBase
								{
									OFFSET 0 0 0
									CHANNELS 3 Zrotation Yrotation Xrotation
									JOINT LeftHandIndex1
									{
										OFFSET 0.48608 -0.00000 -0.00000
										CHANNELS 3 Zrotation Yrotation Xrotation
										End Site
										{
											OFFSET 0.39189 -0.00000 -0.00000
										}
									}
								}
								JOINT LThumb
								{
									OFFSET 0 0 0
									CHANNELS 3 Zrotation Yrotation Xrotation
									End Site
									{
										OFFSET 0.39787 -0.00000 0.39787
									}
								}
							}
						}
					}
				}
				JOINT RightShoulder
				{
					OFFSET 0 0 0
					CHANNELS 3 Zrotation Yrotation Xrotation
					JOINT RightArm
					{
						OFFSET -3.04136 1.42992 -0.76390
						CHANNELS 3 Zrotation Yrotation Xrotation
						JOINT RightForeArm
						{
							OFFSET -5.55576 -0.00000 -0.00000
							CHANNELS 3 Zrotation Yrotation Xrotation
							JOINT RightHand
							{
								OFFSET -3.32774 -0.00000 -0.00000
								CHANNELS 3 Zrotation Yrotation Xrotation
								JOINT RightFingerBase
								{
									OFFSET 0 0 0
									CHANNELS 3 Zrotation Yrotation Xrotation
									JOINT RightHandIndex1
									{
										OFFSET -0.50763 -0.00000 -0.00000
										CHANNELS 3 Zrotation Yrotation Xrotation
										End Site
										{
											OFFSET -0.40926 -0.00000 -0.00000
										}
									}
								}
								JOINT RThumb
								{
									OFFSET 0 0 0
									CHANNELS 3 Zrotation Yrotation Xrotation
									End Site
									{
										OFFSET -0.41551 -0.00000 0.41551
									}
								}
							}
						}
					}
				}
			}
		}
	}
}
MOTION
Frames: 10
Frame Time: .0083333
0.5615 17.9076 4.2954 -117.3150 -78.7539 116.2590 0.0000 0.0000 0.0000 2.1749 -7.9925 -58.8219 11.1094 17.9882 63.1363 -139.8713 -10.4005 -175.0077 0.0007 -0.1748 -0.4802 0.0000 0.0000 0.0000 37.1439 8.2849 -7.4476 -1.7966 -8.4289 24.0247 -0.2448 -0.9850 -9.7576 -1.0598 -6.5453 18.3750 8.2309 1.5679 4.1280 4.5788 2.5747 -1.5280 -0.0296 1.0718 -3.7619 -4.6393 -3.4967 -20.2881 5.2296 -4.6664 18.3087 1.9167 -1.9400 9.3519 -0.0000 -0.0000 0.0000 -76.0150 24.0467 39.7632 26.7264 -37.9170 -9.3305 -0.0000 -0.0000 3.6821 6.5984 5.9410 0.6860 -7.1250 0.0000 -0.0000 -16.6807 35.5253 4.0247 -0.0000 -0.0000 0.0000 85.2627 28.3670 50.3191 -72.9494 58.8725 -45.2896 0.0000 -0.0000 -7.1467 -12.3590 -8.0153 1.7500 7.1250 -0.0000 -0.0000 12.3703 -37.9115 2.1992
0.4221 17.9436 4.2959 -119.0730 -78.4928 117.8000 0.0000 0.0000 0.0000 2.6278 -8.1778 -61.8483 10.6178 17.7429 61.5340 -139.8303 -10.7229 -175.5194 0.0002 -0.1009 -0.2773 0.0000 0.0000 0.0000 37.3688 8.1120 -6.3205 -1.7151 -8.2457 23.4628 -0.2493 -0.9939 -9.8460 -1.0477 -6.5092 18.2692 8.5048 1.7994 4.3398 4.4580 2.9163 -1.4515 -0.3338 1.2353 -3.7628 -4.6660 -3.6042 -20.3118 5.3253 -4.8328 18.3646 1.9303 -2.0084 9.3882 -0.0000 -0.0000 0.0000 -75.2903 25.2135 39.4952 27.4464 -38.6016 -9.7764 -0.0000 -0.0000 3.0679 6.7139 5.7407 0.6746 -7.1250 0.0000 -0.0000 -16.5446 35.3386 4.0678 -0.0000 -0.0000 0.0000 85.0030 29.9147 50.3782 -73.5794 58.9563 -45.8292 0.0000 -0.0000 -7.3883 -12.3098 -7.8999 1.7179 7.1250 -0.0000 -0.0000 12.3888 -37.7930 2.2394
0.2817 17.9771 4.2973 -120.6430 -78.2634 119.1950 0.0000 0.0000 0.0000 3.0632 -8.4225 -64.8113 10.2061 17.5241 60.1750 -139.7973 -10.9909 -175.9221 0.0000 -0.0451 -0.1238 0.0000 0.0000 0.0000 37.5385 7.9256 -5.2932 -1.6429 -8.0788 22.9537 -0.2540 -1.0288 -9.9512 -1.0388 -6.4821 18.1899 8.7514 2.0122 4.5286 4.3375 3.2334 -1.4204 -0.6215 1.3853 -3.7967 -4.7089 -3.7048 -20.2815 5.4117 -4.9847 18.4100 1.9459 -2.0732 9.4109 -0.0000 0.0000 0.0000 -74.5878 26.3737 39.2269 28.1346 -39.2399 -10.2087 -0.0000 -0.0000 2.5536 6.8153 5.5198 0.6586 -7.1250 0.0000 -0.0000 -16.4163 35.1308 4.1205 -0.0000 0.0000 0.0000 84.7042 31.3455 50.3893 -74.0101 59.0115 -46.1983 0.0000 -0.0000 -7.6719 -12.3180 -7.8105 1.6998 7.1250 -0.0000 -0.0000 12.3646 -37.7044 2.2623
0.1401 18.0078 4.2996 -121.9230 -78.0654 120.3490 0.0000 0.0000 0.0000 3.5090 -8.7470 -67.7187 9.8646 17.3330 59.0349 -139.7719 -11.2076 -176.2189 0.0000 -0.0019 -0.0052 0.0000 0.0000 0.0000 37.6638 7.6832 -4.3876 -1.5789 -7.9276 22.4945 -0.2591 -1.0777 -10.0689 -1.0347 -6.4699 18.1541 8.9850 2.2003 4.6781 4.2247 3.5150 -1.4180 -0.8911 1.5170 -3.8386 -4.7564 -3.7954 -20.2467 5.4684 -5.1146 18.4568 1.9550 -2.1315 9.4313 0.0000 0.0000 0.0000 -73.9250 27.4851 38.9498 28.7728 -39.8180 -10.6149 -0.0000 -0.0000 2.1476 6.8800 5.2859 0.6369 -7.1250 0.0000 -0.0000 -16.3156 34.9083 4.1853 0.0000 0.0000 0.0000 84.3608 32.6924 50.3584 -74.2612 59.0430 -46.4136 0.0000 -0.0000 -7.9612 -12.3624 -7.7461 1.6921 7.1250 -0.0000 -0.0000 12.3150 -37.6430 2.2717
-0.0025 18.0361 4.3026 -122.9070 -77.8945 121.2470 0.0000 0.0000 0.0000 3.9791 -9.1428 -70.5557 9.5892 17.1723 58.1064 -139.7514 -11.4019 -176.4303 0.0000 0.0367 0.1007 0.0000 0.0000 0.0000 37.7576 7.3629 -3.5973 -1.5214 -7.7886 22.0738 -0.2640 -1.1505 -10.1936 -1.0338 -6.4670 18.1457 9.2113 2.3654 4.7958 4.1242 3.7641 -1.4401 -1.1413 1.6316 -3.8889 -4.8073 -3.8790 -20.2090 5.4947 -5.2268 18.5066 1.9568 -2.1852 9.4506 0.0000 -0.0000 0.0000 -73.3022 28.5463 38.6741 29.3617 -40.3400 -10.9941 -0.0000 -0.0000 1.8320 6.8233 5.1275 0.6127 -7.1250 0.0000 -0.0000 -16.3286 34.7523 4.2534 0.0000 -0.0000 0.0000 83.9662 33.9567 50.2837 -74.3498 59.0540 -46.4896 0.0000 -0.0000 -8.1956 -12.4060 -7.6813 1.6841 7.1250 -0.0000 -0.0000 12.2660 -37.5812 2.2813
-0.1464 18.0619 4.3062 -123.6720 -77.7439 121.9530 0.0000 0.0000 0.0000 4.4753 -9.5830 -73.2978 9.3773 17.0445 57.3861 -139.7339 -11.6047 -176.5593 0.0002 0.0946 0.2600 0.0000 0.0000 0.0000 37.8271 6.9622 -2.9037 -1.4695 -7.6604 21.6873 -0.2684 -1.2462 -10.3218 -1.0357 -6.4730 18.1631 9.4271 2.5118 4.8849 4.0387 3.9858 -1.4784 -1.3674 1.7321 -3.9416 -4.8674 -3.9555 -20.1620 5.5047 -5.3226 18.5524 1.9568 -2.2338 9.4656 -0.0000 0.0000 0.0000 -72.7273 29.5475 38.3959 29.8910 -40.7998 -11.3384 -0.0000 -0.0000 1.5946 6.6868 5.0260 0.5885 -7.1250 0.0000 -0.0000 -16.4171 34.6475 4.3217 -0.0000 0.0000 0.0000 83.5267 35.1348 50.1686 -74.3048 59.0484 -46.4510 0.0000 -0.0000 -8.3380 -12.4257 -7.6084 1.6710 7.1250 -0.0000 -0.0000 12.2357 -37.5096 2.2973
-0.2912 18.0856 4.3101 -124.2890 -77.6150 122.5220 0.0000 0.0000 0.0000 4.9827 -10.0448 -75.9101 9.2256 16.9507 56.8670 -139.7164 -11.8376 -176.6375 0.0007 0.1753 0.4815 0.0000 0.0000 0.0000 37.8717 6.4881 -2.2801 -1.4227 -7.5427 21.3335 -0.2721 -1.3670 -10.4496 -1.0334 -6.4660 18.1426 9.6193 2.6402 4.9689 3.9691 4.1826 -1.5261 -1.5628 1.8200 -4.0042 -4.9374 -4.0243 -20.1222 5.5030 -5.4019 18.6046 1.9567 -2.2766 9.4832 0.0000 0.0000 0.0000 -72.2131 30.4837 38.1078 30.3511 -41.1925 -11.6402 -0.0000 -0.0000 1.4060 6.4455 5.0112 0.5654 -7.1250 0.0000 -0.0000 -16.6070 34.6211 4.3865 0.0000 0.0000 0.0000 83.0481 36.2279 50.0250 -74.1575 59.0301 -46.3247 0.0000 -0.0000 -8.3817 -12.3946 -7.5341 1.6505 7.1250 -0.0000 -0.0000 12.2474 -37.4335 2.3229
-0.4365 18.1074 4.3137 -124.8410 -77.5074 123.0150 0.0000 0.0000 0.0000 5.4787 -10.5011 -78.3493 9.1344 16.8934 56.5536 -139.6964 -12.1219 -176.6945 0.0018 0.2717 0.7466 0.0000 0.0000 0.0000 37.8925 5.9707 -1.6934 -1.3812 -7.4365 21.0153 -0.2754 -1.5080 -10.5801 -1.0296 -6.4544 18.1086 9.7724 2.7532 5.0676 3.9156 4.3592 -1.5744 -1.7198 1.8982 -4.0800 -5.0158 -4.0872 -20.0986 5.4913 -5.4677 18.6633 1.9563 -2.3144 9.5052 -0.0000 -0.0000 0.0000 -71.7687 31.3479 37.8012 30.7416 -41.5207 -11.8982 -0.0000 -0.0000 1.2728 6.1366 5.0635 0.5437 -7.1250 0.0000 -0.0000 -16.8648 34.6559 4.4449 -0.0000 -0.0000 0.0000 82.5405 37.2369 49.8587 -73.9390 59.0025 -46.1374 0.0000 -0.0000 -8.3271 -12.3156 -7.4641 1.6245 7.1250 -0.0000 -0.0000 12.3000 -37.3585 2.3563
-0.5824 18.1274 4.3169 -125.3950 -77.4218 123.4890 0.0000 0.0000 0.0000 5.9369 -10.9315 -80.5856 9.0982 16.8705 56.4292 -139.6722 -12.4546 -176.7594 0.0034 0.3790 1.0413 0.0000 0.0000 0.0000 37.8860 5.4406 -1.1088 -1.3446 -7.3415 20.7310 -0.2785 -1.6565 -10.7150 -1.0204 -6.4264 18.0267 9.8765 2.8537 5.1891 3.8760 4.5192 -1.6149 -1.8362 1.9692 -4.1657 -5.0973 -4.1419 -20.0900 5.4728 -5.5185 18.7219 1.9561 -2.3459 9.5290 -0.0000 -0.0000 0.0000 -71.3957 32.1393 37.4786 31.0662 -41.7899 -12.1139 -0.0000 -0.0000 1.1745 5.8595 5.1231 0.5251 -7.1250 0.0000 -0.0000 -17.0987 34.6991 4.4926 -0.0000 -0.0000 0.0000 82.0161 38.1580 49.6733 -73.6812 58.9695 -45.9164 0.0000 -0.0000 -8.2028 -12.1956 -7.3943 1.5933 7.1250 -0.0000 -0.0000 12.3867 -37.2812 2.3975
-0.7276 18.1453 4.3195 -125.9230 -77.3555 123.9150 0.0000 0.0000 0.0000 6.3531 -11.3318 -82.6133 9.1087 16.8771 56.4651 -139.6432 -12.8277 -176.8571 0.0054 0.4734 1.3007 0.0000 0.0000 0.0000 37.8616 4.9274 -0.5250 -1.3143 -7.2614 20.4921 -0.2817 -1.7989 -10.8493 -0.9993 -6.3617 17.8374 9.9330 2.9394 5.3402 3.8512 4.6606 -1.6468 -1.9121 2.0319 -4.2649 -5.1747 -4.1878 -20.1039 5.4451 -5.5549 18.7808 1.9538 -2.3709 9.5556 0.0000 0.0000 0.0000 -71.0984 32.8443 37.1376 31.3211 -41.9992 -12.2842 -0.0000 -0.0000 1.1056 5.6611 5.1305 0.5079 -7.1250 0.0000 -0.0000 -17.2587 34.6959 4.5394 0.0000 0.0000 0.0000 81.4908 38.9907 49.4761 -73.4126 58.9344 -45.6863 0.0000 -0.0000 -8.0402 -12.0608 -7.3299 1.5615 7.1250 -0.0000 -0.0000 12.4865 -37.2085 2.4403
